<svg xmlns="http://www.w3.org/2000/svg" viewBox="0 0 100 100">
  <defs>
    <clipPath id="heart">
      <path d="M50,84 C50,84 7,56 7,34 C7,19 17,10 31,10 C39,10 46,15 50,21 C54,15 61,10 69,10 C83,10 93,19 93,34 C93,56 50,84 50,84Z"/>
    </clipPath>
  </defs>

  <!-- Black background -->
  <rect width="100" height="100" fill="#0A0A0A"/>

  <g clip-path="url(#heart)">
    <!-- Ochre/gold sun circle — top left lobe -->
    <circle cx="31" cy="28" r="32" fill="#B8903A"/>
    <!-- Bone white moon circle — top right lobe -->
    <circle cx="69" cy="26" r="32" fill="#EDE8D0"/>

    <!-- Burgundy left mountain peak -->
    <polygon points="4,88 31,24 52,88" fill="#8C1A2C"/>
    <!-- Large rose/pink center mountain -->
    <polygon points="28,88 50,36 76,88" fill="#C03A5A"/>
    <!-- Steel blue tall center-right peak -->
    <polygon points="44,88 63,18 82,88" fill="#4A8FD4"/>
    <!-- Deep teal far-right mountain -->
    <polygon points="60,88 74,28 96,88" fill="#196878"/>
  </g>
</svg>
